<?xml version="1.0" encoding="UTF-8"?>
<svg version="1.1" xmlns="http://www.w3.org/2000/svg" width="62" height="60">
<path d="M0 0 C0.95519531 -0.01224609 1.91039063 -0.02449219 2.89453125 -0.03710938 C9.73239194 -0.05117905 15.98400585 0.23310364 21.9375 3.9375 C28.14609025 10.32347854 27.62048026 17.60090051 27.57104492 25.92749023 C27.56253488 28.11602902 27.59133265 30.30195278 27.62304688 32.49023438 C27.68950445 45.56900998 27.68950445 45.56900998 23.125 51.1875 C16.4076797 56.85990381 8.61342547 56.36869274 0.25 56.375 C-0.59691406 56.38724609 -1.44382812 56.39949219 -2.31640625 56.41210938 C-9.12096983 56.42774007 -15.83441541 56.03829062 -21.75 52.4375 C-28.10568137 45.70795502 -28.02875725 38.22532673 -27.80273438 29.4921875 C-27.76470703 28.27789063 -27.72667969 27.06359375 -27.6875 25.8125 C-27.66880859 24.6059375 -27.65011719 23.399375 -27.63085938 22.15625 C-27.41784277 15.35466707 -27.04617626 10.66743065 -22.875 5.1875 C-15.97066552 -0.51608065 -8.53408258 0.00571224 0 0 Z " fill="#4C5321" transform="translate(30.875,1.8125)"/>
<path d="M0 0 C0.99 0.33 1.98 0.66 3 1 C5.0335579 5.98221686 5.9301591 10.83552024 4 16 C1.53921407 19.43925868 -1.13577016 21.62088771 -5.32421875 22.47265625 C-9.02500614 22.61334734 -11.33595113 22.38871153 -14.5625 20.5 C-15.036875 20.005 -15.51125 19.51 -16 19 C-16.33 20.65 -16.66 22.3 -17 24 C-17.66 23.67 -18.32 23.34 -19 23 C-18.125 18.125 -18.125 18.125 -17 17 C-16.9175 15.741875 -16.835 14.48375 -16.75 13.1875 C-16.36956529 10.09440044 -16.16465825 9.19121603 -14.0625 6.75 C-10.5228532 4.72734469 -6.92689035 3.24948148 -3.109375 1.83203125 C-1.04797061 1.18074567 -1.04797061 1.18074567 0 0 Z " fill="#EAEBE5" transform="translate(38,18)"/>
<path d="M0 0 C0.6271777 7.99651568 0.6271777 7.99651568 -1.875 12 C-4.71133134 14.66948832 -5.53621488 14.96687249 -9.5 15.25 C-11.2325 15.12625 -11.2325 15.12625 -13 15 C-13.66 14.01 -14.32 13.02 -15 12 C-12.69 11.01 -10.38 10.02 -8 9 C-8 8.34 -8 7.68 -8 7 C-8.94875 7.495 -9.8975 7.99 -10.875 8.5 C-14 10 -14 10 -16 10 C-16.365704 5.48965066 -16.365704 5.48965066 -14.8359375 3.44140625 C-12.47524159 1.58800883 -10.33435925 1.00603783 -7.4375 0.25 C-6.46683594 -0.01296875 -5.49617188 -0.2759375 -4.49609375 -0.546875 C-2 -1 -2 -1 0 0 Z " fill="#505827" transform="translate(40,23)"/>
<path d="M0 0 C0.99 0.33 1.98 0.66 3 1 C5.21152754 6.41824248 5.00276791 10.28422291 4 16 C3.01 16 2.02 16 1 16 C1 12.37 1 8.74 1 5 C-1.97 5.66 -4.94 6.32 -8 7 C-8.33 6.01 -8.66 5.02 -9 4 C-8.43410156 3.79503906 -7.86820313 3.59007812 -7.28515625 3.37890625 C-6.55167969 3.10949219 -5.81820312 2.84007812 -5.0625 2.5625 C-4.33160156 2.29566406 -3.60070313 2.02882813 -2.84765625 1.75390625 C-1.01694322 1.14613052 -1.01694322 1.14613052 0 0 Z " fill="#E0E1D8" transform="translate(38,18)"/>
<path d="M0 0 C0 3 0 3 -1.9375 5.1875 C-6.04857135 7.62058305 -9.3396295 7.36551926 -14 7 C-13.67 6.01 -13.34 5.02 -13 4 C-11.96875 4.0825 -10.9375 4.165 -9.875 4.25 C-5.40982801 3.96192439 -3.47673956 2.71355283 0 0 Z " fill="#F2F3EF" transform="translate(40,33)"/>
<path d="M0 0 C0.66 0.66 1.32 1.32 2 2 C-0.3125 4.0625 -0.3125 4.0625 -3 6 C-3.99 5.67 -4.98 5.34 -6 5 C-6 4.34 -6 3.68 -6 3 C-4.02 2.01 -2.04 1.02 0 0 Z " fill="#DDDFD6" transform="translate(32,29)"/>
<path d="M0 0 C0.66 0.33 1.32 0.66 2 1 C-0.64 3.64 -3.28 6.28 -6 9 C-6 6 -6 6 -3.5625 3.375 C-2.716875 2.59125 -1.87125 1.8075 -1 1 C-0.67 0.67 -0.34 0.34 0 0 Z " fill="#5E6535" transform="translate(12,4)"/>
<path d="M0 0 C1.32 0.33 2.64 0.66 4 1 C1.03 2.65 -1.94 4.3 -5 6 C-3 2 -3 2 0 0 Z " fill="#F2F2EF" transform="translate(27,23)"/>
</svg>
