<?xml version="1.0" encoding="UTF-8"?>
<svg version="1.1" xmlns="http://www.w3.org/2000/svg" width="62" height="60">
<path d="M0 0 C20.46 0 40.92 0 62 0 C62 19.8 62 39.6 62 60 C41.54 60 21.08 60 0 60 C0 40.2 0 20.4 0 0 Z " fill="#4D5522" transform="translate(0,0)"/>
<path d="M0 0 C20.46 0 40.92 0 62 0 C62 19.8 62 39.6 62 60 C41.54 60 21.08 60 0 60 C0 40.2 0 20.4 0 0 Z M5.32641602 11.25 C2.8572123 16.36929149 3.52109244 22.13717386 3.55395508 27.71948242 C3.5624629 29.92786973 3.53368411 32.13366485 3.50195312 34.34179688 C3.50034066 35.75781173 3.50091951 37.17383113 3.50390625 38.58984375 C3.50205322 39.86722412 3.5002002 41.14460449 3.49829102 42.46069336 C4.25149393 47.77416427 6.66324091 50.8223789 10.625 54.3125 C16.04918913 58.16652912 22.06978397 57.26079013 28.49316406 57.29516602 C30.72784469 57.31232983 32.96102621 57.35620843 35.1953125 57.40039062 C36.62498915 57.41052243 38.05467836 57.41903701 39.484375 57.42578125 C40.78084961 57.44036377 42.07732422 57.45494629 43.41308594 57.4699707 C48.63845698 56.78532333 52.63985652 54.03217218 56 50 C59.30643016 44.81951713 58.44884024 38.39880183 58.48046875 32.46582031 C58.49982438 30.26992423 58.56186255 28.07782555 58.625 25.8828125 C58.73332556 18.84766918 58.69291703 13.06433148 53.88085938 7.47167969 C47.29314127 2.31711521 40.7173751 2.44131234 32.7421875 2.4440918 C30.63616391 2.43753476 28.53487741 2.38300905 26.4296875 2.32617188 C16.93776123 2.2052601 11.10447993 3.48185456 5.32641602 11.25 Z " fill="#F5F3ED" transform="translate(0,0)"/>
<path d="M0 0 C0.99 0.33 1.98 0.66 3 1 C5.0335579 5.98221686 5.9301591 10.83552024 4 16 C1.53921407 19.43925868 -1.13577016 21.62088771 -5.32421875 22.47265625 C-9.02500614 22.61334734 -11.33595113 22.38871153 -14.5625 20.5 C-15.036875 20.005 -15.51125 19.51 -16 19 C-16.33 20.65 -16.66 22.3 -17 24 C-17.66 23.67 -18.32 23.34 -19 23 C-18.125 18.125 -18.125 18.125 -17 17 C-16.9175 15.741875 -16.835 14.48375 -16.75 13.1875 C-16.36956529 10.09440044 -16.16465825 9.19121603 -14.0625 6.75 C-10.5228532 4.72734469 -6.92689035 3.24948148 -3.109375 1.83203125 C-1.04797061 1.18074567 -1.04797061 1.18074567 0 0 Z " fill="#EAEBE5" transform="translate(38,18)"/>
<path d="M0 0 C0.6271777 7.99651568 0.6271777 7.99651568 -1.875 12 C-4.71133134 14.66948832 -5.53621488 14.96687249 -9.5 15.25 C-11.2325 15.12625 -11.2325 15.12625 -13 15 C-13.66 14.01 -14.32 13.02 -15 12 C-12.69 11.01 -10.38 10.02 -8 9 C-8 8.34 -8 7.68 -8 7 C-8.94875 7.495 -9.8975 7.99 -10.875 8.5 C-14 10 -14 10 -16 10 C-16.365704 5.48965066 -16.365704 5.48965066 -14.8359375 3.44140625 C-12.47524159 1.58800883 -10.33435925 1.00603783 -7.4375 0.25 C-6.46683594 -0.01296875 -5.49617188 -0.2759375 -4.49609375 -0.546875 C-2 -1 -2 -1 0 0 Z " fill="#515827" transform="translate(40,23)"/>
<path d="M0 0 C9.9 0 19.8 0 30 0 C29.01 1.485 29.01 1.485 28 3 C25.20263672 3.34057617 25.20263672 3.34057617 21.6796875 3.29296875 C20.42285156 3.28330078 19.16601562 3.27363281 17.87109375 3.26367188 C16.55238281 3.23853516 15.23367187 3.21339844 13.875 3.1875 C12.53517097 3.17245483 11.19532596 3.15876613 9.85546875 3.14648438 C6.56991158 3.11102872 3.28515418 3.06160849 0 3 C0 2.01 0 1.02 0 0 Z " fill="#D8D8CA" transform="translate(16,57)"/>
<path d="M0 0 C0.99 0.33 1.98 0.66 3 1 C5.21152754 6.41824248 5.00276791 10.28422291 4 16 C3.01 16 2.02 16 1 16 C1 12.37 1 8.74 1 5 C-1.97 5.66 -4.94 6.32 -8 7 C-8.33 6.01 -8.66 5.02 -9 4 C-8.43410156 3.79503906 -7.86820313 3.59007812 -7.28515625 3.37890625 C-6.55167969 3.10949219 -5.81820312 2.84007812 -5.0625 2.5625 C-4.33160156 2.29566406 -3.60070313 2.02882813 -2.84765625 1.75390625 C-1.01694322 1.14613052 -1.01694322 1.14613052 0 0 Z " fill="#E0E1D8" transform="translate(38,18)"/>
<path d="M0 0 C0 3 0 3 -1.9375 5.1875 C-6.04857135 7.62058305 -9.3396295 7.36551926 -14 7 C-13.67 6.01 -13.34 5.02 -13 4 C-11.96875 4.0825 -10.9375 4.165 -9.875 4.25 C-5.40982801 3.96192439 -3.47673956 2.71355283 0 0 Z " fill="#F2F3EF" transform="translate(40,33)"/>
<path d="M0 0 C0.66 0.66 1.32 1.32 2 2 C-0.3125 4.0625 -0.3125 4.0625 -3 6 C-3.99 5.67 -4.98 5.34 -6 5 C-6 4.34 -6 3.68 -6 3 C-4.02 2.01 -2.04 1.02 0 0 Z " fill="#DDDFD6" transform="translate(32,29)"/>
<path d="M0 0 C1.32 0.33 2.64 0.66 4 1 C1.03 2.65 -1.94 4.3 -5 6 C-3 2 -3 2 0 0 Z " fill="#F2F2EF" transform="translate(27,23)"/>
<path d="M0 0 C2.375 -0.1875 2.375 -0.1875 5 0 C5.66 0.99 6.32 1.98 7 3 C4.69 3 2.38 3 0 3 C0 2.01 0 1.02 0 0 Z " fill="#DCDCCF" transform="translate(16,57)"/>
</svg>
